<?xml version="1.0" standalone="no"?>
<!DOCTYPE svg PUBLIC "-//W3C//DTD SVG 20010904//EN"
 "http://www.w3.org/TR/2001/REC-SVG-20010904/DTD/svg10.dtd">
<svg version="1.0" xmlns="http://www.w3.org/2000/svg"
 width="114.000000pt" height="24.000000pt" viewBox="0 0 114.000000 24.000000"
 preserveAspectRatio="xMidYMid meet">

<g transform="translate(0.000000,24.000000) scale(0.100000,-0.100000)"
fill="#fff" stroke="none">
<path d="M260 215 c-17 -21 1 -39 29 -30 27 8 28 45 2 45 -10 0 -24 -7 -31
-15z"/>
<path d="M33 125 l-31 -95 56 0 c67 0 112 23 142 72 44 72 13 118 -78 118
l-58 0 -31 -95z m112 5 c0 -16 -9 -29 -25 -37 -30 -15 -37 -2 -20 41 13 35 45
32 45 -4z"/>
<path d="M1050 190 c-9 -21 -19 -30 -35 -30 -13 0 -37 -12 -54 -26 -29 -24
-31 -24 -31 -6 0 56 -106 30 -129 -32 -24 -64 -24 -66 7 -66 17 0 33 6 35 13
4 10 6 10 6 0 1 -7 14 -13 30 -13 21 0 32 6 36 21 l7 21 15 -21 c25 -37 106
-18 131 31 10 20 52 129 52 136 0 1 -13 2 -29 2 -22 0 -31 -6 -41 -30z m-30
-89 c0 -12 -20 -25 -27 -18 -7 7 6 27 18 27 5 0 9 -4 9 -9z"/>
<path d="M235 153 c-4 -10 -15 -42 -25 -70 l-19 -53 30 0 c23 0 32 6 36 20 l6
21 19 -21 c14 -15 31 -20 69 -20 44 0 51 3 59 26 14 35 13 77 -2 92 -18 18
-59 14 -96 -8 -32 -20 -33 -20 -22 -1 15 28 13 31 -19 31 -18 0 -31 -7 -36
-17z m125 -58 c0 -8 -4 -15 -10 -15 -5 0 -10 7 -10 15 0 8 5 15 10 15 6 0 10
-7 10 -15z"/>
<path d="M471 142 c-10 -10 -26 -38 -34 -64 l-16 -48 29 0 c24 0 30 6 43 43 9
23 16 34 16 25 1 -9 -3 -28 -9 -42 -9 -24 -7 -26 19 -26 25 0 31 6 44 43 9 23
16 34 16 25 1 -9 -3 -28 -9 -42 -9 -24 -8 -26 20 -26 20 0 31 6 35 21 l7 21
15 -21 c33 -49 143 -1 143 63 0 44 -69 60 -112 27 -23 -19 -25 -19 -36 -1 -15
25 -143 27 -171 2z m245 -59 c-10 -10 -19 5 -10 18 6 11 8 11 12 0 2 -7 1 -15
-2 -18z"/>
</g>

</svg>
