<?xml version="1.0" standalone="no"?>
<!DOCTYPE svg PUBLIC "-//W3C//DTD SVG 20010904//EN"
 "http://www.w3.org/TR/2001/REC-SVG-20010904/DTD/svg10.dtd">
<svg version="1.0" xmlns="http://www.w3.org/2000/svg"
 width="152.000000pt" height="23.000000pt" viewBox="0 0 152.000000 23.000000"
 preserveAspectRatio="xMidYMid meet">

<g transform="translate(0.000000,23.000000) scale(0.100000,-0.100000)"
fill="#000000" stroke="none">
<path fill="#fff" d="M52 120 l-31 -90 30 0 c49 0 66 16 89 85 26 79 22 95 -24 95 l-34 0
-30 -90z m56 0 c-11 -33 -26 -60 -33 -60 -11 0 -9 14 8 60 30 81 53 81 25 0z"/>
<path fill="#fff" d="M190 195 c0 -8 6 -15 14 -15 8 0 16 7 20 15 4 10 -1 15 -14 15 -11 0
-20 -7 -20 -15z"/>
<path fill="#fff" d="M175 148 c-39 -109 -41 -118 -21 -118 8 0 22 22 32 53 9 28 19 58 22
65 2 6 -3 12 -12 12 -9 0 -19 -6 -21 -12z"/>
<path fill="#fff" d="M234 139 l-19 -22 28 7 c22 5 28 3 25 -6 -3 -7 -13 -15 -24 -17 -29
-5 -44 -21 -44 -47 0 -20 4 -23 37 -21 35 2 38 5 51 49 8 25 12 53 9 62 -9 23
-40 20 -63 -5z m16 -74 c-7 -9 -15 -13 -17 -11 -7 7 7 26 19 26 6 0 6 -6 -2
-15z"/>
<path fill="#fff" d="M324 106 c-9 -28 -19 -57 -22 -63 -2 -7 3 -13 11 -13 10 0 22 19 32
50 9 28 21 50 26 50 12 0 11 -11 -6 -59 -13 -39 -13 -42 2 -39 10 2 23 22 32
51 8 26 20 47 27 47 10 0 10 -9 -1 -41 -18 -51 -19 -59 -2 -59 11 0 47 88 47
116 0 6 -29 10 -65 11 l-64 0 -17 -51z"/>
<path fill="#fff" d="M509 150 c-22 -13 -46 -97 -31 -112 22 -22 59 0 77 47 9 25 14 52 11
60 -6 17 -33 19 -57 5z m18 -55 c-6 -19 -14 -35 -19 -35 -10 0 -10 1 3 39 15
43 30 40 16 -4z"/>
<path fill="#fff" d="M583 94 c-19 -58 -20 -65 -5 -62 9 2 22 23 31 51 8 26 18 47 23 47
11 0 10 -11 -7 -59 -12 -36 -12 -41 1 -41 16 0 45 59 47 99 2 21 -2 25 -34 27
-35 3 -35 3 -56 -62z"/>
<path fill="#fff" d="M769 182 c-7 -20 -16 -28 -32 -28 -24 1 -45 -33 -54 -88 -5 -33 -5
-34 30 -34 36 0 36 0 66 85 36 98 35 93 15 93 -8 0 -19 -13 -25 -28z m-19 -56
c0 -15 -24 -66 -31 -66 -11 0 -11 0 2 39 6 17 15 31 20 31 5 0 9 -2 9 -4z"/>

<path fill="#A0B2FF" d="M885 198 c-11 -29 -55 -162 -55 -165 0 -2 7 -3 16 -3 8 0 20 14 25
30 14 39 29 39 29 0 0 -20 5 -30 15 -30 12 0 15 13 15 59 0 41 5 62 16 71 8 8
20 22 25 32 19 35 -19 19 -47 -19 -25 -36 -27 -29 -7 25 3 6 -2 12 -11 12 -9
0 -19 -6 -21 -12z"/>
<path fill="#A0B2FF" d="M995 199 c-4 -6 -4 -13 -1 -16 8 -8 36 5 36 17 0 13 -27 13 -35 -1z"/>
<path fill="#A0B2FF" d="M1192 120 c-24 -72 -28 -90 -16 -90 8 0 17 8 21 18 19 54 34 84 39
79 4 -3 -1 -26 -9 -51 -14 -41 -14 -46 -1 -46 17 0 45 59 47 99 2 21 -2 26
-20 24 -20 -2 -21 0 -13 23 13 33 13 34 -4 34 -9 0 -25 -33 -44 -90z"/>
<path fill="#A0B2FF" d="M1045 180 c-3 -11 -10 -20 -15 -20 -5 0 -8 -12 -8 -27 0 -16 -5 -41
-11 -56 -13 -33 -6 -50 17 -45 11 2 17 15 18 42 0 22 8 44 16 50 18 14 20 76
2 76 -7 0 -16 -9 -19 -20z"/>
<path fill="#A0B2FF" d="M964 108 c-9 -29 -19 -59 -22 -65 -2 -7 3 -13 11 -13 10 0 22 20 33
53 9 28 19 58 22 65 2 6 -3 12 -11 12 -10 0 -22 -20 -33 -52z"/>
<path fill="#A0B2FF" d="M1108 143 c-20 -23 -41 -90 -33 -103 11 -18 53 -11 70 12 16 25 2 39
-18 19 -20 -20 -25 -11 -14 24 10 32 27 48 27 25 0 -14 27 -12 32 3 14 37 -36
52 -64 20z"/>
<path fill="#A0B2FF" d="M1316 145 c-24 -25 -42 -93 -28 -107 15 -15 63 0 70 21 3 10 -2 12
-22 7 -15 -4 -26 -2 -26 4 0 5 13 10 29 10 24 0 31 5 36 30 4 16 4 34 0 40 -9
15 -41 12 -59 -5z m34 -24 c0 -6 -4 -13 -10 -16 -5 -3 -10 1 -10 9 0 9 5 16
10 16 6 0 10 -4 10 -9z"/>
<path fill="#A0B2FF" d="M1414 149 c-2 -5 -13 -33 -24 -64 -18 -52 -18 -55 -1 -55 12 0 22 14
32 47 8 25 20 48 27 51 8 2 8 -8 -3 -38 -18 -52 -19 -60 -2 -60 12 0 47 88 47
117 0 13 -68 15 -76 2z"/>
</g>
</svg>
