<?xml version="1.0" standalone="no"?>
<!DOCTYPE svg PUBLIC "-//W3C//DTD SVG 20010904//EN"
 "http://www.w3.org/TR/2001/REC-SVG-20010904/DTD/svg10.dtd">
<svg version="1.0" xmlns="http://www.w3.org/2000/svg"
 width="212.000000pt" height="26.000000pt" viewBox="0 0 212.000000 26.000000"
 preserveAspectRatio="xMidYMid meet">

<g transform="translate(0.000000,26.000000) scale(0.100000,-0.100000)"
fill="#000000" stroke="none">
<path fill="#fff" d="M280 225 c-17 -21 1 -39 29 -30 27 8 28 45 2 45 -10 0 -24 -7 -31
-15z"/>
<path fill="#A0B2FF" d="M1375 233 c-30 -3 -47 -12 -67 -35 -30 -35 -33 -34 -18 6 9 25 8 26
-24 26 -34 0 -35 -1 -62 -82 -15 -46 -29 -89 -32 -95 -3 -9 6 -13 27 -13 27 0
34 5 43 32 l12 33 8 -33 c9 -32 9 -32 72 -32 l64 0 21 62 c27 78 27 78 -7 78
-26 0 -30 -5 -47 -60 -10 -34 -22 -63 -27 -66 -4 -3 -8 18 -8 46 0 44 5 55 35
88 25 27 35 32 35 20 0 -22 33 -24 50 -3 14 17 5 36 -18 33 -9 -1 -35 -3 -57
-5z"/>
<path fill="#fff" d="M53 135 l-31 -95 56 0 c67 0 112 23 142 72 44 72 13 118 -78 118
l-58 0 -31 -95z m112 5 c0 -16 -9 -29 -25 -37 -30 -15 -37 -2 -20 41 13 35 45
32 45 -4z"/>
<path fill="#fff" d="M1070 200 c-9 -21 -19 -30 -35 -30 -13 0 -37 -12 -54 -26 -29 -24
-31 -24 -31 -6 0 56 -106 30 -129 -32 -24 -64 -24 -66 7 -66 17 0 33 6 35 13
4 10 6 10 6 0 1 -7 14 -13 30 -13 21 0 32 6 36 21 l7 21 15 -21 c25 -37 106
-18 131 31 10 20 52 129 52 136 0 1 -13 2 -29 2 -22 0 -31 -6 -41 -30z m-30
-89 c0 -12 -20 -25 -27 -18 -7 7 6 27 18 27 5 0 9 -4 9 -9z"/>
<path fill="#A0B2FF" d="M1451 168 c-24 -71 -26 -99 -9 -116 18 -18 49 -14 55 7 5 19 5 19 24
0 27 -27 72 -24 108 7 17 14 31 30 31 35 0 17 -59 10 -69 -8 -11 -21 -26 -11
-18 12 4 10 20 15 47 15 41 0 52 14 28 38 -18 18 -59 15 -94 -7 l-30 -18 1 48
c1 47 0 49 -26 49 -24 0 -29 -6 -48 -62z m59 -63 c0 -8 -4 -15 -10 -15 -5 0
-10 7 -10 15 0 8 5 15 10 15 6 0 10 -7 10 -15z"/>
<path fill="#A0B2FF" d="M1683 136 l-31 -95 64 0 c53 0 64 3 69 19 6 18 7 18 26 -1 19 -19 53
-24 83 -13 12 5 13 11 6 25 -6 10 -17 16 -25 13 -8 -4 -15 -1 -15 5 0 6 19 11
45 11 40 0 45 2 45 23 0 49 -51 62 -107 27 -33 -20 -33 -20 -33 0 0 15 -7 20
-26 20 -23 0 -25 3 -19 30 6 28 5 30 -22 30 -27 0 -30 -4 -60 -94z"/>
<path fill="#fff" d="M255 163 c-4 -10 -15 -42 -25 -70 l-19 -53 30 0 c23 0 32 6 36 20 l6
21 19 -21 c14 -15 31 -20 69 -20 44 0 51 3 59 26 14 35 13 77 -2 92 -18 18
-59 14 -96 -8 -32 -20 -33 -20 -22 -1 15 28 13 31 -19 31 -18 0 -31 -7 -36
-17z m125 -58 c0 -8 -4 -15 -10 -15 -5 0 -10 7 -10 15 0 8 5 15 10 15 6 0 10
-7 10 -15z"/>
<path fill="#fff" d="M491 152 c-10 -10 -26 -38 -34 -64 l-16 -48 29 0 c24 0 30 6 43 43 9
23 16 34 16 25 1 -9 -3 -28 -9 -42 -9 -24 -7 -26 19 -26 25 0 31 6 44 43 9 23
16 34 16 25 1 -9 -3 -28 -9 -42 -9 -24 -8 -26 20 -26 20 0 31 6 35 21 l7 21
15 -21 c33 -49 143 -1 143 63 0 44 -69 60 -112 27 -23 -19 -25 -19 -36 -1 -15
25 -143 27 -171 2z m245 -59 c-10 -10 -19 5 -10 18 6 11 8 11 12 0 2 -7 1 -15
-2 -18z"/>
<path fill="#A0B2FF" d="M1998 151 c-14 -12 -33 -41 -41 -65 l-15 -45 64 0 64 0 11 38 c17 59
10 85 -27 89 -19 2 -40 -5 -56 -17z"/>
</g>
</svg>
