<?xml version="1.0" standalone="no"?>
<!DOCTYPE svg PUBLIC "-//W3C//DTD SVG 20010904//EN"
 "http://www.w3.org/TR/2001/REC-SVG-20010904/DTD/svg10.dtd">
<svg version="1.0" xmlns="http://www.w3.org/2000/svg"
 width="96.000000pt" height="23.000000pt" viewBox="0 0 96.000000 23.000000"
 preserveAspectRatio="xMidYMid meet">

<g transform="translate(0.000000,23.000000) scale(0.100000,-0.100000)"
fill="#A0B2FF" stroke="none">
<path d="M215 213 c-30 -3 -47 -12 -67 -35 -30 -35 -33 -34 -18 6 9 25 8 26
-24 26 -34 0 -35 -1 -62 -82 -15 -46 -29 -89 -32 -95 -3 -9 6 -13 27 -13 27 0
34 5 43 32 l12 33 8 -33 c9 -32 9 -32 72 -32 l64 0 21 62 c27 78 27 78 -7 78
-26 0 -30 -5 -47 -60 -10 -34 -22 -63 -27 -66 -4 -3 -8 18 -8 46 0 44 5 55 35
88 25 27 35 32 35 20 0 -22 33 -24 50 -3 14 17 5 36 -18 33 -9 -1 -35 -3 -57
-5z"/>
<path d="M291 148 c-24 -71 -26 -99 -9 -116 18 -18 49 -14 55 7 5 19 5 19 24
0 27 -27 72 -24 108 7 17 14 31 30 31 35 0 17 -59 10 -69 -8 -11 -21 -26 -11
-18 12 4 10 20 15 47 15 41 0 52 14 28 38 -18 18 -59 15 -94 -7 l-30 -18 1 48
c1 47 0 49 -26 49 -24 0 -29 -6 -48 -62z m59 -63 c0 -8 -4 -15 -10 -15 -5 0
-10 7 -10 15 0 8 5 15 10 15 6 0 10 -7 10 -15z"/>
<path d="M523 116 l-31 -95 64 0 c53 0 64 3 69 19 6 18 7 18 26 -1 19 -19 53
-24 83 -13 12 5 13 11 6 25 -6 10 -17 16 -25 13 -8 -4 -15 -1 -15 5 0 6 19 11
45 11 40 0 45 2 45 23 0 49 -51 62 -107 27 -33 -20 -33 -20 -33 0 0 15 -7 20
-26 20 -23 0 -25 3 -19 30 6 28 5 30 -22 30 -27 0 -30 -4 -60 -94z"/>
<path d="M838 131 c-14 -12 -33 -41 -41 -65 l-15 -45 64 0 64 0 11 38 c17 59
10 85 -27 89 -19 2 -40 -5 -56 -17z"/>
</g>
</svg>
